<svg width="45" height="45" viewBox="0 0 45 45" fill="none" xmlns="http://www.w3.org/2000/svg">
<path d="M36.9117 6.30005H8.08829C7.614 6.30005 7.15914 6.48846 6.82377 6.82383C6.4884 7.1592 6.29999 7.61406 6.29999 8.08835V36.9122C6.30011 37.3864 6.48857 37.8412 6.82393 38.1764C7.15929 38.5117 7.61408 38.7001 8.08829 38.7001H23.6056V26.1532H19.3833V21.2634H23.6056V17.6571C23.6056 13.4721 26.1616 11.1938 29.8948 11.1938C31.6831 11.1938 33.2199 11.3265 33.6681 11.3864V15.7599L31.0788 15.7613C29.0484 15.7613 28.6555 16.7261 28.6555 18.1418V21.2639H33.4975L32.8671 26.1536H28.6555V38.7001H36.9121C37.3863 38.6999 37.8411 38.5115 38.1764 38.1761C38.5116 37.8407 38.7 37.386 38.7 36.9118V8.08835C38.7 7.61406 38.5116 7.1592 38.1762 6.82383C37.8408 6.48846 37.386 6.30005 36.9117 6.30005Z" fill="#CCCCCC"/>
</svg>
