<svg width="45" height="45" viewBox="0 0 45 45" fill="none" xmlns="http://www.w3.org/2000/svg">
<path d="M39.825 11.754C38.5276 12.3288 37.1513 12.7059 35.7421 12.8727C37.2265 11.9846 38.3372 10.5871 38.8674 8.94061C37.4722 9.76886 35.9455 10.3521 34.3534 10.665C33.6883 9.95556 32.8845 9.39026 31.9919 9.00415C31.0994 8.61805 30.137 8.41936 29.1645 8.42041C25.2387 8.42041 22.0554 11.6028 22.0554 15.5295C22.0554 16.0862 22.1184 16.6293 22.2399 17.15C16.3314 16.8534 11.0934 14.0229 7.587 9.72136C6.95478 10.8063 6.62257 12.04 6.62444 13.2957C6.62351 14.4662 6.91172 15.6187 7.46345 16.651C8.01518 17.6832 8.81335 18.5632 9.78704 19.2128C8.65831 19.1769 7.55445 18.8721 6.56729 18.3236C6.56639 18.3533 6.56639 18.3825 6.56639 18.4131C6.56639 21.8565 9.01664 24.7298 12.2683 25.3836C11.2213 25.6671 10.1235 25.7086 9.05804 25.5051C9.96254 28.3289 12.5878 30.3849 15.6987 30.4425C13.1805 32.4187 10.0708 33.4906 6.86969 33.4859C6.29594 33.4859 5.73029 33.4526 5.17365 33.3864C8.42414 35.4749 12.2072 36.5835 16.0708 36.5796C29.1469 36.5796 36.2974 25.7477 36.2974 16.3544C36.2974 16.0466 36.2902 15.7392 36.2767 15.4337C37.6693 14.4283 38.8709 13.1822 39.825 11.754Z" fill="#CCCCCC"/>
</svg>
