<svg width="45" height="45" viewBox="0 0 45 45" fill="none" xmlns="http://www.w3.org/2000/svg">
<path d="M38.8278 26.2324C39.0775 25.089 39.2107 23.9032 39.2107 22.6851C39.2107 13.5577 31.8118 6.15791 22.6836 6.15791C21.7206 6.15791 20.7774 6.24161 19.858 6.40046C18.3322 5.43695 16.5641 4.92664 14.7595 4.92896C9.46709 4.92896 5.17499 9.21926 5.17499 14.514C5.17499 16.2825 5.65604 17.938 6.49304 19.3596C6.27012 20.4542 6.15795 21.5684 6.15824 22.6855C6.15824 31.8124 13.5562 39.2118 22.6836 39.2118C23.7181 39.2118 24.7288 39.115 25.7116 38.935C27.1041 39.6826 28.6604 40.073 30.2409 40.0713C35.5342 40.0713 39.8254 35.7823 39.8254 30.4876C39.827 29.0111 39.4855 27.5544 38.8278 26.2324ZM31.1611 30.5839C30.3957 31.6644 29.2657 32.5221 27.8032 33.13C26.3529 33.7339 24.6168 34.0395 22.6377 34.0395C20.2653 34.0395 18.2749 33.6201 16.7215 32.7966C15.6114 32.1954 14.6956 31.3845 14.0008 30.3819C13.2984 29.3698 12.9415 28.3645 12.9415 27.3957C12.9415 26.7913 13.1746 26.2662 13.6318 25.8364C14.0845 25.4103 14.6641 25.1934 15.3567 25.1934C15.9241 25.1934 16.4146 25.3644 16.812 25.7001C17.1922 26.0232 17.5189 26.4993 17.7799 27.1167C18.0733 27.7863 18.3933 28.3533 18.7303 28.7997C19.0534 29.2267 19.521 29.589 20.1168 29.8702C20.7148 30.1542 21.523 30.2986 22.5166 30.2986C23.8828 30.2986 25.0038 30.0066 25.8448 29.4301C26.6688 28.8681 27.0688 28.194 27.0688 27.3678C27.0688 26.7157 26.8591 26.2023 26.4294 25.8009C25.9803 25.3806 25.3876 25.053 24.6672 24.8289C23.9161 24.5944 22.8951 24.342 21.6342 24.0774C19.9197 23.7102 18.463 23.2746 17.3029 22.7814C16.1181 22.2774 15.1623 21.5781 14.4643 20.7037C13.7551 19.8145 13.3951 18.7003 13.3951 17.3908C13.3951 16.1425 13.7722 15.018 14.5174 14.0464C15.2568 13.0821 16.3363 12.3333 17.7246 11.8194C19.0971 11.3113 20.7288 11.0557 22.5738 11.0557C24.0498 11.0557 25.3476 11.2263 26.4303 11.562C27.5197 11.9031 28.4377 12.3589 29.16 12.9241C29.8854 13.492 30.4272 14.0991 30.7651 14.7295C31.1094 15.3667 31.2835 16.0017 31.2835 16.6155C31.2835 17.2059 31.0554 17.7414 30.6049 18.2098C30.1522 18.6801 29.5821 18.9181 28.908 18.9181C28.296 18.9181 27.8167 18.7696 27.4846 18.4758C27.175 18.2022 26.8537 17.7756 26.4987 17.1622C26.086 16.3801 25.5883 15.7627 25.0159 15.3271C24.4602 14.905 23.5314 14.6908 22.257 14.6908C21.0708 14.6908 20.1073 14.928 19.3932 15.3973C18.7033 15.8491 18.369 16.3666 18.369 16.9818C18.369 17.3584 18.4765 17.6725 18.6979 17.943C18.9342 18.231 19.264 18.4807 19.6839 18.6918C20.1181 18.9096 20.565 19.0837 21.0132 19.207C21.474 19.3353 22.243 19.5243 23.301 19.7677C24.637 20.0562 25.8669 20.377 26.9532 20.7249C28.0534 21.0772 29.0052 21.5119 29.7805 22.0168C30.5725 22.5312 31.1994 23.194 31.6453 23.9842C32.0904 24.7785 32.3158 25.7563 32.3158 26.8944C32.3158 28.2561 31.9275 29.4972 31.1611 30.5839Z" fill="#CCCCCC"/>
</svg>
