<svg width="34" height="34" viewBox="0 0 34 34" fill="none" xmlns="http://www.w3.org/2000/svg">
<path d="M32.5706 5.59573C32.5706 5.34568 32.5044 5.1001 32.3787 4.88393C32.253 4.66776 32.0724 4.48871 31.8551 4.36496C31.6378 4.24121 31.3916 4.17718 31.1416 4.17936C30.8916 4.18154 30.6466 4.24987 30.4315 4.37739C29.6019 4.87154 28.7087 5.24999 27.7766 5.50223C26.4463 4.36078 24.7497 3.73622 22.9968 3.74273C21.074 3.74503 19.2274 4.49445 17.8468 5.83276C16.4662 7.17107 15.6597 8.99352 15.5976 10.9153C11.8063 10.3109 8.37011 8.33206 5.94439 5.35631C5.79822 5.17919 5.61165 5.03976 5.40037 4.94978C5.18909 4.85979 4.95929 4.82188 4.7303 4.83923C4.50137 4.85817 4.28049 4.93257 4.08673 5.05597C3.89298 5.17938 3.73218 5.3481 3.61822 5.54756C3.03387 6.56741 2.69829 7.71071 2.63872 8.8846C2.57916 10.0585 2.79728 11.2299 3.27539 12.3036L3.27255 12.3051C3.0572 12.4374 2.87947 12.6228 2.75642 12.8436C2.63338 13.0644 2.56914 13.3131 2.56989 13.5659C2.56761 13.7738 2.5804 13.9817 2.60814 14.1878C2.75281 15.97 3.54262 17.6383 4.82947 18.8798C4.74215 19.0463 4.6889 19.2285 4.67284 19.4158C4.65679 19.6031 4.67825 19.7917 4.73597 19.9706C5.29694 21.719 6.49017 23.1952 8.08214 24.1101C6.46454 24.7355 4.71797 24.9535 2.9963 24.7448C2.6778 24.7052 2.35528 24.7749 2.08157 24.9425C1.80787 25.1102 1.59919 25.3658 1.48973 25.6675C1.38027 25.9692 1.37651 26.2992 1.47906 26.6033C1.58162 26.9074 1.78441 27.1677 2.05422 27.3416C5.01535 29.2484 8.46305 30.2621 11.9851 30.2613C15.979 30.3063 19.8758 29.0301 23.0694 26.6312C26.263 24.2324 28.5743 20.8454 29.6438 16.9971C30.1438 15.3208 30.3991 13.5811 30.4017 11.8319L30.4003 11.5486C31.14 10.7507 31.713 9.81318 32.0857 8.79098C32.4584 7.76878 32.6233 6.68247 32.5706 5.59573ZM27.8871 10.1461C27.6529 10.4226 27.5342 10.7788 27.5556 11.1406C27.5698 11.3743 27.5684 11.6095 27.5684 11.8319C27.5654 13.3097 27.3488 14.7794 26.9252 16.1952C26.0521 19.47 24.1052 22.357 21.3964 24.3939C18.6875 26.4308 15.3735 27.4997 11.9851 27.4294C10.7683 27.4296 9.5558 27.2865 8.37255 27.003C9.88174 26.5163 11.2928 25.7661 12.5404 24.7873C12.7704 24.6064 12.9388 24.3588 13.0224 24.0783C13.106 23.7979 13.1007 23.4984 13.0073 23.2211C12.9138 22.9438 12.7367 22.7023 12.5004 22.5297C12.2641 22.357 11.9802 22.2618 11.6876 22.2571C10.5099 22.2387 9.38542 21.7638 8.55105 20.9326C8.76261 20.8929 8.97275 20.8433 9.18147 20.7838C9.4875 20.6968 9.75535 20.5093 9.94185 20.2516C10.1283 19.9938 10.2226 19.6807 10.2096 19.3629C10.1965 19.045 10.0768 18.7407 9.86969 18.4992C9.66263 18.2576 9.38029 18.0928 9.06814 18.0312C8.38458 17.8962 7.74138 17.6053 7.18855 17.1813C6.63571 16.7572 6.18814 16.2113 5.88064 15.5861C6.1367 15.6211 6.39441 15.6428 6.65272 15.6512C6.95969 15.6563 7.26028 15.5634 7.51093 15.3861C7.76157 15.2089 7.94924 14.9563 8.04672 14.6652C8.14029 14.3716 8.13559 14.0556 8.03333 13.7649C7.93107 13.4742 7.73683 13.2248 7.48005 13.0545C6.85663 12.6395 6.34588 12.0763 5.99356 11.4155C5.64124 10.7546 5.45836 10.0166 5.4613 9.26773C5.4613 9.17423 5.46414 9.07931 5.4698 8.98723C8.64521 11.949 12.7641 13.6948 17.1006 13.9172C17.3196 13.9255 17.5376 13.8839 17.7381 13.7956C17.9386 13.7072 18.1164 13.5744 18.2581 13.4072C18.3983 13.239 18.4977 13.0405 18.5483 12.8274C18.599 12.6143 18.5995 12.3923 18.5499 12.179C18.4688 11.8407 18.4274 11.4941 18.4266 11.1462C18.4281 9.9346 18.9101 8.77303 19.7669 7.91629C20.6236 7.05954 21.7852 6.57756 22.9968 6.57606C23.6203 6.57422 24.2375 6.70168 24.8093 6.95039C25.3811 7.1991 25.8951 7.56366 26.3189 8.02106C26.4823 8.1969 26.688 8.328 26.9163 8.4019C27.1447 8.47579 27.3882 8.49002 27.6236 8.44323C28.2056 8.3301 28.7793 8.1777 29.3406 7.98706C28.9579 8.77023 28.4687 9.49676 27.8871 10.1461Z" fill="white"/>
</svg>
