<svg width="34" height="34" viewBox="0 0 34 34" fill="none" xmlns="http://www.w3.org/2000/svg">
<path d="M21.4484 16.7352C20.8807 16.3707 20.2646 16.0879 19.6181 15.8951C19.2214 15.7747 18.7822 15.6571 18.3289 15.5452C17.9322 15.4347 17.4619 15.3213 16.8811 15.1938C16.1879 15.0485 15.5076 14.8476 14.8467 14.5932C14.5061 14.4608 14.2055 14.2427 13.9741 13.9599C13.8047 13.7285 13.7242 13.4439 13.7474 13.1581C13.7469 12.8516 13.8491 12.5538 14.0378 12.3123C14.3019 12.003 14.6445 11.7706 15.0295 11.6394C15.6771 11.4169 16.3595 11.3132 17.044 11.3334C17.5736 11.3246 18.1016 11.3943 18.6108 11.5402C18.9485 11.6353 19.2666 11.7897 19.5501 11.9964C19.7334 12.1272 19.8897 12.2922 20.0105 12.4823C20.0979 12.6474 20.2172 12.7936 20.3614 12.9124C20.5056 13.0312 20.6718 13.1203 20.8506 13.1746C21.0294 13.2289 21.2171 13.2473 21.403 13.2287C21.5889 13.2102 21.7693 13.155 21.9338 13.0665C22.0983 12.9779 22.2437 12.8577 22.3615 12.7127C22.4794 12.5678 22.5674 12.4009 22.6205 12.2218C22.6736 12.0427 22.6908 11.8548 22.671 11.6691C22.6512 11.4833 22.5949 11.3032 22.5052 11.1393C22.2065 10.6109 21.803 10.1491 21.3195 9.78216C20.7608 9.35301 20.1272 9.03162 19.4509 8.83441C18.6702 8.60377 17.8594 8.49108 17.0454 8.50008C16.0107 8.47781 14.9806 8.64588 14.0066 8.99591C13.1258 9.31657 12.352 9.8769 11.7726 10.6137C11.2175 11.3464 10.9171 12.2403 10.9169 13.1595C10.8939 14.0746 11.1838 14.9701 11.7386 15.6982C12.2742 16.3727 12.9763 16.8961 13.7757 17.2168C14.3798 17.4493 14.9983 17.6423 15.6273 17.7948C15.6386 17.7991 15.6471 17.809 15.6585 17.8118C15.9305 17.894 16.364 18.0031 16.9901 18.1377C17.2352 18.1915 17.4647 18.2496 17.6942 18.3077C17.7169 18.3133 17.7495 18.3204 17.7707 18.3275L17.7962 18.3303C18.1476 18.421 18.4861 18.5131 18.7964 18.608C19.1775 18.7195 19.5413 18.8836 19.8773 19.0953C20.0868 19.2269 20.2628 19.4054 20.3916 19.6167C20.5161 19.8744 20.5736 20.1595 20.5587 20.4454C20.5783 20.8155 20.4714 21.1812 20.2556 21.4824C19.964 21.8618 19.5697 22.1494 19.1194 22.3112C18.4482 22.5702 17.7318 22.6916 17.0128 22.6682C16.1813 22.7001 15.3542 22.533 14.6002 22.1808C14.252 21.9954 13.9529 21.7298 13.7276 21.4059C13.5694 21.1987 13.4705 20.9524 13.4414 20.6933C13.4414 20.3176 13.2921 19.9573 13.0265 19.6916C12.7608 19.4259 12.4004 19.2767 12.0247 19.2767C11.649 19.2767 11.2887 19.4259 11.023 19.6916C10.7573 19.9573 10.6081 20.3176 10.6081 20.6933C10.6314 21.5293 10.9059 22.3389 11.3957 23.0167C11.8853 23.7217 12.5374 24.2984 13.2969 24.6982C14.4525 25.2621 15.7275 25.5377 17.0128 25.5015C18.105 25.5279 19.1913 25.3327 20.206 24.9277C21.1492 24.5658 21.9681 23.9397 22.5647 23.1243C23.1318 22.33 23.4225 21.3714 23.3921 20.3958C23.4052 19.6396 23.2222 18.8928 22.8608 18.2283C22.5118 17.6285 22.0283 17.1178 21.4484 16.7366V16.7352ZM31.6781 19.3957C32.0601 17.0675 31.8823 14.6818 31.1594 12.436C30.4366 10.1902 29.1894 8.14869 27.5211 6.48041C25.8529 4.81214 23.8114 3.565 21.5656 2.84214C19.3197 2.11928 16.9341 1.94147 14.6059 2.32341C12.8869 1.49922 10.9545 1.22894 9.07538 1.54987C7.19625 1.8708 5.46307 2.76712 4.11509 4.11511C2.7671 5.46309 1.87078 7.19627 1.54985 9.0754C1.22892 10.9545 1.4992 12.8869 2.32339 14.6059C1.94176 16.9338 2.11975 19.3192 2.84265 21.5647C3.56556 23.8102 4.8126 25.8514 6.48067 27.5195C8.14874 29.1875 10.1899 30.4346 12.4354 31.1575C14.681 31.8804 17.0663 32.0584 19.3942 31.6767C21.1132 32.5009 23.0456 32.7712 24.9247 32.4503C26.8039 32.1294 28.537 31.233 29.885 29.885C31.233 28.5371 32.1293 26.8039 32.4503 24.9248C32.7712 23.0456 32.5009 21.1132 31.6767 19.3942L31.6781 19.3957ZM23.3751 29.7501C22.3001 29.7496 21.2427 29.4777 20.3009 28.9596C20.0087 28.7986 19.6692 28.7454 19.3418 28.8094C17.5959 29.1576 15.7944 29.114 14.0673 28.6817C12.3403 28.2494 10.7307 27.4391 9.35476 26.3094C7.97878 25.1797 6.8707 23.7586 6.11044 22.1488C5.35019 20.5389 4.95671 18.7804 4.95839 17.0001C4.95985 16.2133 5.03766 15.4286 5.19072 14.6569C5.25481 14.3295 5.20165 13.99 5.04056 13.6978C4.37537 12.488 4.12092 11.0949 4.31548 9.72803C4.51004 8.36116 5.14309 7.0944 6.11943 6.11821C7.09578 5.14203 8.36264 4.50919 9.72955 4.31486C11.0964 4.12052 12.4895 4.37519 13.6992 5.04058C13.9917 5.20236 14.3319 5.25555 14.6597 5.19075C16.4056 4.84276 18.2069 4.88656 19.9338 5.319C21.6606 5.75143 23.27 6.56172 24.6458 7.69142C26.0216 8.82113 27.1296 10.2421 27.8897 11.8518C28.6499 13.4615 29.0434 15.2199 29.0417 17.0001C29.0403 17.7868 28.9625 18.5715 28.8094 19.3432C28.7453 19.6707 28.7985 20.0102 28.9596 20.3023C29.494 21.2729 29.7661 22.366 29.7492 23.4738C29.7323 24.5816 29.4269 25.6659 28.8631 26.6197C28.2993 27.5735 27.4967 28.3638 26.5343 28.9128C25.5719 29.4617 24.483 29.7503 23.3751 29.7501Z" fill="white"/>
</svg>
