<svg width="34" height="34" viewBox="0 0 34 34" fill="none" xmlns="http://www.w3.org/2000/svg">
<path d="M17 2.83325C14.1981 2.83325 11.4591 3.66411 9.12942 5.22077C6.79973 6.77742 4.98395 8.98995 3.91171 11.5786C2.83947 14.1672 2.55892 17.0156 3.10554 19.7637C3.65217 22.5118 5.00141 25.036 6.98266 27.0173C8.9639 28.9985 11.4882 30.3478 14.2362 30.8944C16.9843 31.441 19.8327 31.1605 22.4214 30.0882C25.01 29.016 27.2225 27.2002 28.7792 24.8705C30.3358 22.5408 31.1667 19.8018 31.1667 16.9999C31.1667 15.1395 30.8002 13.2973 30.0883 11.5786C29.3764 9.85979 28.3328 8.29807 27.0173 6.98257C25.7019 5.66708 24.1401 4.62357 22.4214 3.91163C20.7026 3.19968 18.8604 2.83325 17 2.83325ZM17 5.66659C19.9109 5.66542 22.7088 6.79274 24.8058 8.81158C22.6412 10.0812 20.3474 11.1165 17.9633 11.8999C16.7769 9.85542 15.4166 7.91687 13.8975 6.10575C14.9061 5.81533 15.9504 5.66751 17 5.66659ZM11.1775 7.29575C12.6617 8.99363 13.9938 10.8187 15.1583 12.7499C12.3776 13.4404 9.52355 13.7924 6.65834 13.7983H6.14834C6.95187 11.0777 8.74641 8.75748 11.1775 7.29575ZM8.5 24.5224C6.65657 22.4523 5.64695 19.7718 5.66667 16.9999V16.5891H6.63C9.98378 16.5591 13.3186 16.0827 16.5467 15.1724C17 16.0366 17.425 16.9291 17.8358 17.8499C15.6279 18.6283 13.5717 19.7834 11.7583 21.2641L11.3333 21.6041C10.3234 22.5111 9.37676 23.4861 8.5 24.5224ZM17 28.3333C14.742 28.3383 12.5349 27.6618 10.6675 26.3924C11.3572 25.6013 12.0953 24.8538 12.8775 24.1541L13.3308 23.7716C15.007 22.3619 16.9277 21.2718 18.9975 20.5558C19.8494 22.8592 20.5127 25.2281 20.9808 27.6391C19.7056 28.1047 18.3576 28.3398 17 28.3333ZM23.5592 26.2224C23.0957 24.0784 22.4899 21.9676 21.7458 19.9041H22.2275C22.2833 19.8903 22.3417 19.8903 22.3975 19.9041H23.375C24.8658 19.9084 26.3455 20.1621 27.7525 20.6549C26.9795 22.9079 25.5112 24.8574 23.5592 26.2224ZM23.375 16.9999H22.4967C22.3132 16.9768 22.1276 16.9768 21.9442 16.9999C21.5591 17.0236 21.1759 17.0709 20.7967 17.1416H20.655C20.2442 16.1924 19.8192 15.2716 19.3517 14.3083C21.8884 13.4371 24.3247 12.2973 26.6192 10.9083C27.7574 12.7349 28.3519 14.8478 28.3333 16.9999V17.7224C26.7278 17.2269 25.0552 16.9832 23.375 16.9999Z" fill="white"/>
</svg>
